<?xml version="1.0" encoding="UTF-8"?>
<svg width="73px" height="20px" viewBox="0 0 73 20" version="1.1" xmlns="http://www.w3.org/2000/svg" xmlns:xlink="http://www.w3.org/1999/xlink">
    <title>发光</title>
    <defs>
        <linearGradient x1="50%" y1="43.5403531%" x2="50%" y2="93.3984084%" id="linearGradient-1">
            <stop stop-color="#C1E2FF" stop-opacity="0" offset="0%"></stop>
            <stop stop-color="#5896FF" offset="100%"></stop>
        </linearGradient>
    </defs>
    <g id="页面-1" stroke="none" stroke-width="1" fill="none" fill-rule="evenodd" opacity="0.482498896">
        <g id="政务办事大厅备份" transform="translate(-309.000000, -407.000000)" stroke="url(#linearGradient-1)">
            <path d="M342.326175,393.25811 C343.830969,392.509858 345.595281,392.49065 347.116008,393.205963 L347.116008,393.205963 L380.480311,408.899711 C380.85513,409.076017 381.123003,409.387557 381.253094,409.748725 C381.383186,410.109894 381.375497,410.520691 381.199191,410.89551 C381.040317,411.23327 380.76122,411.499663 380.41643,411.642641 L380.41643,411.642641 L346.874583,425.551811 C345.490424,426.125796 343.931995,426.110178 342.559617,425.508569 L342.559617,425.508569 L310.904522,411.631935 C310.525158,411.465633 310.249116,411.161308 310.10949,410.803717 C309.969864,410.446127 309.966654,410.03527 310.132956,409.655907 C310.274145,409.333829 310.524008,409.071596 310.838893,408.91502 L310.838893,408.91502 Z" id="发光"></path>
        </g>
    </g>
</svg>