<?xml version="1.0" encoding="UTF-8"?>
<svg width="73px" height="35px" viewBox="0 0 73 35" version="1.1" xmlns="http://www.w3.org/2000/svg" xmlns:xlink="http://www.w3.org/1999/xlink">
    <title>矩形</title>
    <defs>
        <linearGradient x1="50%" y1="43.5403531%" x2="50%" y2="93.3984084%" id="linearGradient-1">
            <stop stop-color="#C1E2FF" stop-opacity="0.54308143" offset="0.772201431%"></stop>
            <stop stop-color="#5896FF" offset="100%"></stop>
        </linearGradient>
    </defs>
    <g id="页面-1" stroke="none" stroke-width="1" fill="none" fill-rule="evenodd">
        <g id="政务办事大厅备份" transform="translate(-309.000000, -269.000000)" stroke="url(#linearGradient-1)">
            <g id="编组-5" transform="translate(306.785433, 231.846696)">
                <path d="M35.5407423,38.411414 C37.0455361,37.663162 38.8098479,37.6439538 40.3305756,38.3592668 L40.3305756,38.3592668 L73.6948781,54.0530154 C74.069697,54.229321 74.3375698,54.5408611 74.4676616,54.9020296 C74.5977533,55.263198 74.5900639,55.6739948 74.4137583,56.0488137 C74.2548841,56.3865742 73.9757875,56.6529667 73.6309971,56.7959448 L73.6309971,56.7959448 L40.0891505,70.7051153 C38.7049914,71.2790999 37.1465623,71.2634823 35.7741842,70.6618734 L35.7741842,70.6618734 L4.11908877,56.7852388 C3.73972523,56.6189374 3.463683,56.3146122 3.32405702,55.9570215 C3.18443104,55.5994308 3.18122132,55.1885746 3.3475228,54.809211 C3.48871209,54.4871329 3.73857509,54.2249 4.05346058,54.0683246 L4.05346058,54.0683246 Z" id="矩形"></path>
            </g>
        </g>
    </g>
</svg>